<?xml version="1.0" encoding="UTF-8"?>
<svg xmlns="http://www.w3.org/2000/svg" xmlns:xlink="http://www.w3.org/1999/xlink" width="185.48pt" height="28.87pt" viewBox="0 0 185.48 28.87" version="1.1">
<defs>
<clipPath id="clip1">
  <path d="M 173 4 L 185 4 L 185 13 L 173 13 Z M 173 4 "/>
</clipPath>
<clipPath id="clip2">
  <path d="M 0 2 L 20 2 L 20 28.871094 L 0 28.871094 Z M 0 2 "/>
</clipPath>
<clipPath id="clip3">
  <path d="M 17 1 L 38 1 L 38 28.871094 L 17 28.871094 Z M 17 1 "/>
</clipPath>
</defs>
<g id="surface1">
<path style=" stroke:none;fill-rule:nonzero;fill:rgb(31.399536%,34.498596%,35.299683%);fill-opacity:1;" d="M 47.390625 24.265625 L 48.566406 24.164063 C 48.59375 24.40625 48.636719 24.621094 48.703125 24.8125 C 48.769531 25 48.847656 25.167969 48.945313 25.316406 C 49.050781 25.464844 49.179688 25.597656 49.339844 25.71875 C 49.496094 25.839844 49.675781 25.949219 49.886719 26.042969 C 50.105469 26.128906 50.335938 26.195313 50.574219 26.242188 C 50.8125 26.292969 51.0625 26.316406 51.324219 26.316406 C 51.5625 26.316406 51.78125 26.296875 51.992188 26.257813 C 52.203125 26.21875 52.398438 26.167969 52.582031 26.109375 C 52.765625 26.039063 52.921875 25.953125 53.058594 25.855469 C 53.195313 25.753906 53.304688 25.644531 53.390625 25.523438 C 53.480469 25.402344 53.542969 25.277344 53.589844 25.140625 C 53.632813 25.007813 53.652344 24.871094 53.652344 24.734375 C 53.652344 24.585938 53.632813 24.449219 53.589844 24.324219 C 53.542969 24.199219 53.480469 24.082031 53.390625 23.96875 C 53.304688 23.863281 53.195313 23.765625 53.058594 23.667969 C 52.921875 23.574219 52.753906 23.492188 52.554688 23.421875 C 52.433594 23.378906 52.230469 23.320313 51.953125 23.242188 C 51.675781 23.164063 51.320313 23.074219 50.894531 22.96875 C 50.46875 22.867188 50.101563 22.765625 49.796875 22.664063 C 49.488281 22.566406 49.25 22.472656 49.078125 22.386719 C 48.859375 22.273438 48.664063 22.144531 48.5 21.996094 C 48.335938 21.851563 48.195313 21.695313 48.082031 21.53125 C 47.96875 21.355469 47.886719 21.175781 47.835938 20.984375 C 47.78125 20.796875 47.753906 20.59375 47.753906 20.375 C 47.753906 20.140625 47.789063 19.917969 47.851563 19.695313 C 47.917969 19.476563 48.023438 19.261719 48.160156 19.054688 C 48.292969 18.855469 48.457031 18.675781 48.652344 18.519531 C 48.847656 18.367188 49.070313 18.234375 49.324219 18.132813 C 49.585938 18.027344 49.859375 17.949219 50.148438 17.890625 C 50.4375 17.835938 50.738281 17.808594 51.050781 17.808594 C 51.398438 17.808594 51.726563 17.835938 52.03125 17.890625 C 52.335938 17.949219 52.621094 18.03125 52.882813 18.144531 C 53.152344 18.257813 53.390625 18.394531 53.59375 18.554688 C 53.800781 18.714844 53.972656 18.90625 54.109375 19.128906 C 54.25 19.347656 54.359375 19.574219 54.4375 19.8125 C 54.515625 20.050781 54.558594 20.308594 54.570313 20.582031 L 53.378906 20.664063 C 53.34375 20.375 53.273438 20.121094 53.167969 19.902344 C 53.066406 19.683594 52.917969 19.5 52.726563 19.351563 C 52.542969 19.203125 52.316406 19.09375 52.042969 19.015625 C 51.773438 18.9375 51.460938 18.898438 51.101563 18.898438 C 50.726563 18.898438 50.402344 18.929688 50.128906 18.996094 C 49.855469 19.058594 49.628906 19.164063 49.457031 19.300781 C 49.289063 19.4375 49.164063 19.589844 49.078125 19.753906 C 48.988281 19.917969 48.945313 20.09375 48.945313 20.285156 C 48.945313 20.449219 48.976563 20.605469 49.035156 20.746094 C 49.097656 20.886719 49.191406 21.011719 49.3125 21.113281 C 49.433594 21.21875 49.648438 21.324219 49.960938 21.433594 C 50.269531 21.542969 50.675781 21.65625 51.179688 21.777344 C 51.6875 21.890625 52.113281 21.996094 52.457031 22.09375 C 52.800781 22.195313 53.066406 22.289063 53.246094 22.371094 C 53.527344 22.492188 53.765625 22.632813 53.96875 22.789063 C 54.167969 22.945313 54.328125 23.121094 54.453125 23.320313 C 54.582031 23.511719 54.679688 23.714844 54.746094 23.929688 C 54.8125 24.144531 54.84375 24.378906 54.84375 24.628906 C 54.84375 24.871094 54.808594 25.109375 54.738281 25.34375 C 54.667969 25.578125 54.566406 25.804688 54.425781 26.03125 C 54.285156 26.246094 54.109375 26.441406 53.902344 26.613281 C 53.691406 26.789063 53.457031 26.933594 53.195313 27.054688 C 52.925781 27.167969 52.640625 27.25 52.339844 27.308594 C 52.039063 27.363281 51.722656 27.390625 51.390625 27.390625 C 50.964844 27.390625 50.574219 27.363281 50.21875 27.300781 C 49.867188 27.242188 49.546875 27.152344 49.257813 27.042969 C 48.972656 26.921875 48.714844 26.765625 48.492188 26.582031 C 48.273438 26.394531 48.078125 26.179688 47.910156 25.9375 C 47.746094 25.6875 47.621094 25.425781 47.539063 25.148438 C 47.457031 24.871094 47.40625 24.582031 47.390625 24.28125 L 47.390625 24.265625 "/>
<path style=" stroke:none;fill-rule:nonzero;fill:rgb(31.399536%,34.498596%,35.299683%);fill-opacity:1;" d="M 55.953125 23.871094 C 55.953125 23.257813 56.039063 22.71875 56.214844 22.257813 C 56.390625 21.796875 56.652344 21.417969 57 21.121094 C 57.289063 20.871094 57.609375 20.683594 57.96875 20.558594 C 58.324219 20.433594 58.714844 20.371094 59.132813 20.371094 C 59.59375 20.371094 60.015625 20.445313 60.402344 20.597656 C 60.785156 20.75 61.125 20.976563 61.421875 21.277344 C 61.71875 21.582031 61.9375 21.941406 62.085938 22.359375 C 62.234375 22.78125 62.308594 23.257813 62.308594 23.792969 C 62.308594 24.226563 62.277344 24.609375 62.210938 24.949219 C 62.148438 25.285156 62.046875 25.578125 61.917969 25.832031 C 61.777344 26.082031 61.613281 26.300781 61.425781 26.492188 C 61.238281 26.683594 61.019531 26.847656 60.765625 26.984375 C 60.523438 27.121094 60.261719 27.222656 59.988281 27.28125 C 59.714844 27.34375 59.429688 27.375 59.132813 27.375 C 58.652344 27.375 58.222656 27.300781 57.84375 27.160156 C 57.464844 27.015625 57.125 26.792969 56.832031 26.492188 C 56.53125 26.1875 56.3125 25.820313 56.167969 25.390625 C 56.027344 24.957031 55.953125 24.457031 55.953125 23.886719 Z M 57.132813 23.871094 C 57.132813 24.3125 57.179688 24.695313 57.273438 25.011719 C 57.371094 25.332031 57.511719 25.601563 57.695313 25.816406 C 57.886719 26.035156 58.101563 26.195313 58.339844 26.304688 C 58.582031 26.414063 58.84375 26.464844 59.132813 26.464844 C 59.410156 26.464844 59.667969 26.414063 59.910156 26.304688 C 60.148438 26.195313 60.363281 26.035156 60.558594 25.816406 C 60.75 25.601563 60.890625 25.328125 60.980469 25 C 61.074219 24.671875 61.121094 24.289063 61.121094 23.847656 C 61.121094 23.429688 61.074219 23.066406 60.980469 22.757813 C 60.890625 22.445313 60.75 22.183594 60.558594 21.964844 C 60.363281 21.75 60.148438 21.585938 59.910156 21.480469 C 59.667969 21.371094 59.410156 21.316406 59.132813 21.316406 C 58.84375 21.316406 58.582031 21.367188 58.339844 21.472656 C 58.101563 21.578125 57.886719 21.738281 57.695313 21.953125 C 57.511719 22.167969 57.371094 22.4375 57.273438 22.757813 C 57.179688 23.078125 57.132813 23.453125 57.132813 23.886719 L 57.132813 23.871094 "/>
<path style=" stroke:none;fill-rule:nonzero;fill:rgb(31.399536%,34.498596%,35.299683%);fill-opacity:1;" d="M 68.085938 26.242188 C 67.824219 26.625 67.515625 26.90625 67.15625 27.09375 C 66.796875 27.277344 66.394531 27.371094 65.941406 27.371094 C 65.738281 27.371094 65.546875 27.355469 65.359375 27.320313 C 65.171875 27.285156 64.988281 27.238281 64.816406 27.175781 C 64.640625 27.101563 64.492188 27.011719 64.363281 26.914063 C 64.238281 26.8125 64.132813 26.707031 64.042969 26.59375 C 63.957031 26.480469 63.882813 26.355469 63.828125 26.210938 C 63.769531 26.070313 63.726563 25.914063 63.691406 25.75 C 63.664063 25.636719 63.644531 25.492188 63.632813 25.316406 C 63.617188 25.140625 63.613281 24.929688 63.613281 24.6875 L 63.613281 20.511719 L 64.761719 20.511719 L 64.761719 24.246094 C 64.761719 24.546875 64.769531 24.800781 64.78125 25 C 64.796875 25.195313 64.816406 25.351563 64.839844 25.453125 C 64.875 25.601563 64.933594 25.734375 65.011719 25.855469 C 65.089844 25.976563 65.1875 26.078125 65.300781 26.164063 C 65.421875 26.25 65.554688 26.316406 65.699219 26.359375 C 65.84375 26.402344 65.996094 26.425781 66.164063 26.425781 C 66.335938 26.425781 66.503906 26.402344 66.664063 26.355469 C 66.828125 26.304688 66.984375 26.238281 67.144531 26.152344 C 67.292969 26.066406 67.417969 25.960938 67.527344 25.839844 C 67.636719 25.71875 67.722656 25.585938 67.785156 25.4375 C 67.84375 25.292969 67.890625 25.109375 67.921875 24.886719 C 67.953125 24.667969 67.96875 24.414063 67.96875 24.128906 L 67.96875 20.511719 L 69.117188 20.511719 L 69.117188 27.230469 L 68.085938 27.230469 L 68.085938 26.242188 "/>
<path style=" stroke:none;fill-rule:nonzero;fill:rgb(31.399536%,34.498596%,35.299683%);fill-opacity:1;" d="M 73.410156 26.222656 L 73.578125 27.234375 C 73.414063 27.257813 73.257813 27.277344 73.113281 27.289063 C 72.96875 27.304688 72.839844 27.308594 72.714844 27.308594 C 72.507813 27.308594 72.320313 27.296875 72.160156 27.273438 C 72 27.246094 71.855469 27.203125 71.734375 27.140625 C 71.621094 27.074219 71.523438 26.996094 71.441406 26.914063 C 71.359375 26.832031 71.292969 26.734375 71.25 26.621094 C 71.207031 26.519531 71.175781 26.355469 71.152344 26.128906 C 71.132813 25.90625 71.121094 25.625 71.121094 25.289063 L 71.121094 21.398438 L 70.269531 21.398438 L 70.269531 20.515625 L 71.121094 20.515625 L 71.121094 18.855469 L 72.257813 18.167969 L 72.257813 20.515625 L 73.410156 20.515625 L 73.410156 21.398438 L 72.257813 21.398438 L 72.257813 25.339844 C 72.257813 25.511719 72.261719 25.652344 72.269531 25.753906 C 72.28125 25.859375 72.296875 25.929688 72.324219 25.976563 C 72.339844 26.019531 72.367188 26.058594 72.402344 26.097656 C 72.4375 26.136719 72.476563 26.167969 72.519531 26.195313 C 72.5625 26.222656 72.617188 26.242188 72.683594 26.253906 C 72.75 26.265625 72.824219 26.273438 72.910156 26.273438 C 72.972656 26.273438 73.042969 26.269531 73.128906 26.261719 C 73.210938 26.25 73.304688 26.242188 73.410156 26.234375 L 73.410156 26.222656 "/>
<path style=" stroke:none;fill-rule:nonzero;fill:rgb(31.399536%,34.498596%,35.299683%);fill-opacity:1;" d="M 74.515625 17.964844 L 75.667969 17.964844 L 75.667969 21.296875 C 75.9375 20.996094 76.242188 20.765625 76.582031 20.609375 C 76.921875 20.453125 77.296875 20.375 77.707031 20.375 C 77.960938 20.375 78.195313 20.402344 78.40625 20.453125 C 78.621094 20.507813 78.824219 20.578125 79.015625 20.675781 C 79.199219 20.769531 79.355469 20.886719 79.484375 21.023438 C 79.617188 21.164063 79.722656 21.320313 79.800781 21.492188 C 79.886719 21.65625 79.949219 21.867188 79.988281 22.121094 C 80.027344 22.375 80.046875 22.667969 80.046875 22.996094 L 80.046875 27.238281 L 78.898438 27.238281 L 78.898438 22.984375 C 78.898438 22.707031 78.863281 22.464844 78.800781 22.257813 C 78.734375 22.050781 78.640625 21.882813 78.519531 21.75 C 78.394531 21.621094 78.246094 21.523438 78.074219 21.460938 C 77.898438 21.394531 77.699219 21.363281 77.472656 21.363281 C 77.296875 21.363281 77.128906 21.382813 76.96875 21.425781 C 76.808594 21.46875 76.652344 21.535156 76.503906 21.621094 C 76.355469 21.707031 76.230469 21.8125 76.125 21.933594 C 76.019531 22.054688 75.933594 22.1875 75.863281 22.335938 C 75.800781 22.480469 75.753906 22.660156 75.71875 22.867188 C 75.683594 23.074219 75.667969 23.3125 75.667969 23.578125 L 75.667969 27.238281 L 74.515625 27.238281 L 74.515625 17.964844 "/>
<path style=" stroke:none;fill-rule:nonzero;fill:rgb(31.399536%,34.498596%,35.299683%);fill-opacity:1;" d="M 86.429688 25.078125 L 87.621094 25.21875 C 87.535156 25.574219 87.402344 25.882813 87.226563 26.148438 C 87.054688 26.414063 86.839844 26.640625 86.589844 26.828125 C 86.335938 27.019531 86.042969 27.15625 85.71875 27.242188 C 85.390625 27.332031 85.03125 27.375 84.640625 27.375 C 84.140625 27.375 83.699219 27.300781 83.304688 27.160156 C 82.914063 27.015625 82.574219 26.792969 82.285156 26.492188 C 81.988281 26.1875 81.769531 25.824219 81.625 25.402344 C 81.480469 24.980469 81.410156 24.496094 81.410156 23.949219 C 81.410156 23.378906 81.484375 22.875 81.632813 22.4375 C 81.78125 22.003906 82.003906 21.625 82.296875 21.304688 C 82.585938 20.992188 82.921875 20.757813 83.304688 20.605469 C 83.6875 20.449219 84.113281 20.371094 84.574219 20.371094 C 85.035156 20.371094 85.449219 20.449219 85.816406 20.605469 C 86.183594 20.757813 86.507813 20.988281 86.796875 21.292969 C 87.085938 21.59375 87.300781 21.960938 87.445313 22.394531 C 87.589844 22.824219 87.660156 23.320313 87.660156 23.871094 C 87.660156 23.90625 87.660156 23.949219 87.660156 24 C 87.660156 24.054688 87.660156 24.113281 87.660156 24.183594 L 82.597656 24.171875 C 82.617188 24.550781 82.675781 24.882813 82.78125 25.164063 C 82.886719 25.445313 83.035156 25.683594 83.226563 25.882813 C 83.417969 26.074219 83.632813 26.21875 83.867188 26.316406 C 84.101563 26.417969 84.363281 26.464844 84.652344 26.464844 C 84.859375 26.464844 85.054688 26.4375 85.234375 26.382813 C 85.414063 26.324219 85.578125 26.246094 85.722656 26.140625 C 85.871094 26.027344 86.007813 25.886719 86.125 25.714844 C 86.242188 25.542969 86.34375 25.332031 86.429688 25.089844 Z M 82.664063 23.226563 L 86.445313 23.226563 C 86.417969 22.957031 86.371094 22.714844 86.300781 22.496094 C 86.230469 22.28125 86.132813 22.105469 86.011719 21.964844 C 85.828125 21.742188 85.617188 21.574219 85.378906 21.464844 C 85.136719 21.359375 84.875 21.304688 84.585938 21.304688 C 84.324219 21.304688 84.082031 21.351563 83.859375 21.441406 C 83.640625 21.53125 83.4375 21.664063 83.253906 21.835938 C 83.078125 22.007813 82.941406 22.210938 82.839844 22.445313 C 82.742188 22.679688 82.679688 22.941406 82.664063 23.238281 L 82.664063 23.226563 "/>
<path style=" stroke:none;fill-rule:nonzero;fill:rgb(31.399536%,34.498596%,35.299683%);fill-opacity:1;" d="M 93.488281 26.414063 C 93.269531 26.59375 93.0625 26.75 92.859375 26.878906 C 92.660156 27.011719 92.460938 27.109375 92.261719 27.179688 C 92.066406 27.238281 91.863281 27.289063 91.652344 27.320313 C 91.4375 27.355469 91.21875 27.375 90.992188 27.375 C 90.617188 27.375 90.285156 27.332031 90.003906 27.25 C 89.71875 27.167969 89.476563 27.039063 89.277344 26.855469 C 89.078125 26.683594 88.925781 26.480469 88.828125 26.246094 C 88.726563 26.011719 88.675781 25.757813 88.675781 25.480469 C 88.675781 25.308594 88.695313 25.148438 88.726563 25 C 88.765625 24.855469 88.820313 24.710938 88.898438 24.570313 C 88.976563 24.433594 89.066406 24.3125 89.167969 24.203125 C 89.265625 24.09375 89.375 24 89.488281 23.921875 C 89.609375 23.835938 89.738281 23.761719 89.878906 23.695313 C 90.019531 23.632813 90.167969 23.582031 90.324219 23.546875 C 90.375 23.53125 90.4375 23.515625 90.507813 23.503906 C 90.578125 23.488281 90.65625 23.476563 90.742188 23.457031 C 90.820313 23.449219 90.914063 23.433594 91.019531 23.417969 C 91.121094 23.402344 91.230469 23.386719 91.34375 23.378906 C 91.804688 23.328125 92.207031 23.265625 92.546875 23.199219 C 92.886719 23.128906 93.167969 23.054688 93.386719 22.976563 C 93.386719 22.933594 93.386719 22.898438 93.386719 22.867188 C 93.386719 22.835938 93.390625 22.808594 93.398438 22.78125 C 93.398438 22.765625 93.398438 22.746094 93.398438 22.726563 C 93.398438 22.703125 93.398438 22.6875 93.398438 22.679688 C 93.398438 22.453125 93.367188 22.257813 93.3125 22.09375 C 93.257813 21.929688 93.175781 21.800781 93.070313 21.707031 C 92.921875 21.578125 92.738281 21.480469 92.523438 21.414063 C 92.304688 21.351563 92.050781 21.316406 91.761719 21.316406 C 91.492188 21.316406 91.257813 21.339844 91.054688 21.386719 C 90.855469 21.4375 90.691406 21.507813 90.558594 21.605469 C 90.4375 21.6875 90.328125 21.816406 90.234375 21.984375 C 90.136719 22.152344 90.058594 22.359375 89.996094 22.601563 L 88.871094 22.433594 C 88.925781 22.199219 88.992188 21.984375 89.074219 21.792969 C 89.15625 21.597656 89.257813 21.429688 89.371094 21.292969 C 89.492188 21.144531 89.636719 21.015625 89.808594 20.902344 C 89.976563 20.792969 90.171875 20.695313 90.390625 20.617188 C 90.617188 20.53125 90.855469 20.46875 91.109375 20.429688 C 91.363281 20.390625 91.636719 20.371094 91.933594 20.371094 C 92.21875 20.371094 92.480469 20.386719 92.71875 20.421875 C 92.953125 20.457031 93.160156 20.507813 93.34375 20.578125 C 93.519531 20.636719 93.675781 20.710938 93.808594 20.796875 C 93.945313 20.886719 94.054688 20.980469 94.144531 21.082031 C 94.230469 21.1875 94.300781 21.304688 94.359375 21.433594 C 94.414063 21.5625 94.460938 21.707031 94.496094 21.863281 C 94.515625 21.957031 94.527344 22.09375 94.535156 22.269531 C 94.542969 22.449219 94.546875 22.664063 94.546875 22.914063 L 94.546875 24.417969 C 94.546875 24.953125 94.554688 25.390625 94.566406 25.726563 C 94.582031 26.0625 94.601563 26.300781 94.628906 26.441406 C 94.652344 26.578125 94.691406 26.714844 94.738281 26.855469 C 94.785156 26.992188 94.84375 27.117188 94.914063 27.230469 L 93.710938 27.230469 C 93.652344 27.117188 93.601563 26.996094 93.566406 26.859375 C 93.53125 26.726563 93.507813 26.582031 93.488281 26.425781 Z M 92.605469 24.113281 C 92.296875 24.183594 91.933594 24.25 91.515625 24.300781 C 91.277344 24.335938 91.078125 24.371094 90.90625 24.410156 C 90.734375 24.449219 90.601563 24.488281 90.507813 24.535156 C 90.410156 24.578125 90.328125 24.628906 90.253906 24.6875 C 90.179688 24.75 90.113281 24.824219 90.0625 24.910156 C 90.003906 24.988281 89.957031 25.070313 89.933594 25.164063 C 89.90625 25.253906 89.894531 25.347656 89.894531 25.441406 C 89.894531 25.597656 89.921875 25.738281 89.984375 25.863281 C 90.046875 25.988281 90.132813 26.101563 90.246094 26.207031 C 90.367188 26.308594 90.515625 26.386719 90.683594 26.433594 C 90.855469 26.480469 91.046875 26.503906 91.265625 26.503906 C 91.492188 26.503906 91.703125 26.480469 91.902344 26.433594 C 92.097656 26.386719 92.277344 26.316406 92.441406 26.21875 C 92.617188 26.125 92.769531 26.007813 92.894531 25.875 C 93.019531 25.742188 93.121094 25.59375 93.203125 25.429688 C 93.261719 25.308594 93.308594 25.152344 93.339844 24.960938 C 93.367188 24.769531 93.386719 24.546875 93.386719 24.289063 L 93.386719 23.859375 C 93.175781 23.953125 92.914063 24.039063 92.605469 24.113281 "/>
<path style=" stroke:none;fill-rule:nonzero;fill:rgb(31.399536%,34.498596%,35.299683%);fill-opacity:1;" d="M 95.867188 25.234375 L 97.003906 25.050781 C 97.039063 25.285156 97.101563 25.488281 97.195313 25.664063 C 97.285156 25.835938 97.402344 25.980469 97.539063 26.101563 C 97.6875 26.226563 97.863281 26.3125 98.0625 26.375 C 98.265625 26.433594 98.496094 26.464844 98.757813 26.464844 C 99.027344 26.464844 99.261719 26.441406 99.457031 26.386719 C 99.652344 26.335938 99.8125 26.253906 99.933594 26.140625 C 100.0625 26.039063 100.160156 25.921875 100.226563 25.796875 C 100.292969 25.671875 100.324219 25.539063 100.324219 25.390625 C 100.324219 25.269531 100.296875 25.15625 100.242188 25.058594 C 100.183594 24.960938 100.097656 24.871094 99.984375 24.792969 C 99.90625 24.742188 99.769531 24.683594 99.574219 24.617188 C 99.378906 24.554688 99.121094 24.480469 98.808594 24.402344 C 98.382813 24.292969 98.023438 24.191406 97.734375 24.101563 C 97.449219 24.007813 97.222656 23.929688 97.054688 23.859375 C 96.890625 23.78125 96.746094 23.6875 96.625 23.582031 C 96.503906 23.472656 96.398438 23.351563 96.308594 23.210938 C 96.222656 23.074219 96.160156 22.929688 96.121094 22.78125 C 96.082031 22.636719 96.0625 22.480469 96.0625 22.316406 C 96.0625 22.167969 96.078125 22.023438 96.113281 21.882813 C 96.148438 21.738281 96.203125 21.605469 96.273438 21.472656 C 96.339844 21.351563 96.421875 21.238281 96.519531 21.128906 C 96.617188 21.019531 96.71875 20.921875 96.835938 20.835938 C 96.929688 20.769531 97.035156 20.707031 97.15625 20.65625 C 97.273438 20.605469 97.410156 20.554688 97.566406 20.511719 C 97.722656 20.46875 97.882813 20.433594 98.050781 20.410156 C 98.214844 20.382813 98.386719 20.371094 98.558594 20.371094 C 98.832031 20.371094 99.082031 20.390625 99.3125 20.429688 C 99.542969 20.46875 99.757813 20.527344 99.960938 20.605469 C 100.160156 20.683594 100.335938 20.769531 100.480469 20.871094 C 100.632813 20.96875 100.753906 21.082031 100.847656 21.214844 C 100.945313 21.34375 101.023438 21.496094 101.089844 21.667969 C 101.15625 21.839844 101.207031 22.039063 101.242188 22.265625 L 100.117188 22.394531 C 100.097656 22.230469 100.054688 22.082031 99.980469 21.945313 C 99.90625 21.8125 99.808594 21.699219 99.683594 21.605469 C 99.5625 21.507813 99.414063 21.433594 99.238281 21.382813 C 99.066406 21.332031 98.863281 21.304688 98.640625 21.304688 C 98.378906 21.304688 98.152344 21.324219 97.964844 21.367188 C 97.777344 21.414063 97.628906 21.480469 97.515625 21.578125 C 97.402344 21.664063 97.316406 21.753906 97.257813 21.851563 C 97.203125 21.945313 97.171875 22.050781 97.171875 22.171875 C 97.171875 22.25 97.183594 22.320313 97.207031 22.386719 C 97.226563 22.453125 97.265625 22.515625 97.316406 22.574219 C 97.359375 22.636719 97.417969 22.691406 97.488281 22.742188 C 97.558594 22.796875 97.644531 22.84375 97.75 22.886719 C 97.800781 22.902344 97.914063 22.9375 98.082031 22.984375 C 98.253906 23.03125 98.480469 23.09375 98.769531 23.171875 C 99.179688 23.285156 99.523438 23.382813 99.800781 23.46875 C 100.082031 23.554688 100.304688 23.632813 100.46875 23.703125 C 100.636719 23.765625 100.78125 23.847656 100.90625 23.949219 C 101.035156 24.054688 101.140625 24.171875 101.230469 24.300781 C 101.324219 24.429688 101.394531 24.574219 101.4375 24.734375 C 101.480469 24.894531 101.503906 25.074219 101.503906 25.273438 C 101.503906 25.464844 101.476563 25.648438 101.417969 25.824219 C 101.359375 26 101.277344 26.175781 101.164063 26.351563 C 101.050781 26.511719 100.914063 26.660156 100.757813 26.789063 C 100.601563 26.917969 100.414063 27.03125 100.195313 27.128906 C 99.984375 27.203125 99.761719 27.265625 99.527344 27.308594 C 99.292969 27.351563 99.039063 27.375 98.769531 27.375 C 98.332031 27.375 97.945313 27.332031 97.605469 27.25 C 97.265625 27.167969 96.980469 27.039063 96.753906 26.855469 C 96.527344 26.671875 96.339844 26.449219 96.191406 26.179688 C 96.042969 25.914063 95.9375 25.601563 95.867188 25.246094 L 95.867188 25.234375 "/>
<path style=" stroke:none;fill-rule:nonzero;fill:rgb(31.399536%,34.498596%,35.299683%);fill-opacity:1;" d="M 105.367188 26.222656 L 105.539063 27.234375 C 105.371094 27.257813 105.21875 27.277344 105.074219 27.289063 C 104.929688 27.304688 104.796875 27.308594 104.675781 27.308594 C 104.464844 27.308594 104.28125 27.296875 104.117188 27.273438 C 103.957031 27.246094 103.816406 27.203125 103.695313 27.140625 C 103.582031 27.074219 103.484375 26.996094 103.398438 26.914063 C 103.316406 26.832031 103.253906 26.734375 103.210938 26.621094 C 103.167969 26.519531 103.132813 26.355469 103.113281 26.128906 C 103.089844 25.90625 103.078125 25.625 103.078125 25.289063 L 103.078125 21.398438 L 102.230469 21.398438 L 102.230469 20.515625 L 103.078125 20.515625 L 103.078125 18.855469 L 104.21875 18.167969 L 104.21875 20.515625 L 105.367188 20.515625 L 105.367188 21.398438 L 104.21875 21.398438 L 104.21875 25.339844 C 104.21875 25.511719 104.222656 25.652344 104.230469 25.753906 C 104.238281 25.859375 104.257813 25.929688 104.28125 25.976563 C 104.300781 26.019531 104.324219 26.058594 104.359375 26.097656 C 104.394531 26.136719 104.4375 26.167969 104.480469 26.195313 C 104.523438 26.222656 104.578125 26.242188 104.644531 26.253906 C 104.707031 26.265625 104.785156 26.273438 104.871094 26.273438 C 104.933594 26.273438 105.003906 26.269531 105.085938 26.261719 C 105.171875 26.25 105.265625 26.242188 105.367188 26.234375 L 105.367188 26.222656 "/>
<path style=" stroke:none;fill-rule:nonzero;fill:rgb(31.399536%,34.498596%,35.299683%);fill-opacity:1;" d="M 110.203125 17.964844 L 113.710938 17.964844 C 114.066406 17.972656 114.390625 18 114.679688 18.042969 C 114.964844 18.085938 115.21875 18.15625 115.4375 18.25 C 115.652344 18.34375 115.847656 18.464844 116.019531 18.605469 C 116.1875 18.75 116.335938 18.917969 116.457031 19.117188 C 116.578125 19.308594 116.671875 19.507813 116.730469 19.714844 C 116.792969 19.921875 116.824219 20.132813 116.824219 20.351563 C 116.824219 20.542969 116.796875 20.730469 116.738281 20.921875 C 116.683594 21.113281 116.601563 21.292969 116.496094 21.464844 C 116.382813 21.640625 116.246094 21.796875 116.085938 21.9375 C 115.921875 22.082031 115.734375 22.210938 115.515625 22.320313 C 115.792969 22.398438 116.042969 22.511719 116.261719 22.652344 C 116.480469 22.796875 116.660156 22.964844 116.808594 23.164063 C 116.96875 23.355469 117.082031 23.566406 117.15625 23.800781 C 117.230469 24.035156 117.269531 24.289063 117.269531 24.566406 C 117.269531 24.78125 117.246094 24.992188 117.203125 25.195313 C 117.15625 25.398438 117.089844 25.589844 116.992188 25.769531 C 116.90625 25.960938 116.804688 26.128906 116.6875 26.277344 C 116.566406 26.425781 116.441406 26.546875 116.3125 26.640625 C 116.175781 26.746094 116.019531 26.835938 115.847656 26.914063 C 115.679688 26.992188 115.488281 27.054688 115.28125 27.105469 C 115.078125 27.160156 114.851563 27.195313 114.601563 27.210938 C 114.347656 27.226563 114.070313 27.238281 113.777344 27.238281 L 110.203125 27.238281 Z M 113.460938 21.855469 C 113.742188 21.863281 113.980469 21.859375 114.175781 21.84375 C 114.371094 21.824219 114.53125 21.796875 114.652344 21.765625 C 114.808594 21.722656 114.945313 21.660156 115.0625 21.582031 C 115.183594 21.503906 115.277344 21.414063 115.359375 21.308594 C 115.4375 21.199219 115.496094 21.074219 115.535156 20.941406 C 115.574219 20.808594 115.59375 20.65625 115.59375 20.492188 C 115.59375 20.335938 115.574219 20.191406 115.539063 20.050781 C 115.507813 19.914063 115.449219 19.789063 115.371094 19.675781 C 115.300781 19.554688 115.214844 19.457031 115.109375 19.378906 C 115.003906 19.300781 114.878906 19.238281 114.730469 19.195313 C 114.589844 19.152344 114.402344 19.121094 114.167969 19.101563 C 113.933594 19.078125 113.648438 19.066406 113.316406 19.066406 L 111.433594 19.054688 L 111.433594 21.855469 Z M 113.777344 26.148438 C 113.976563 26.15625 114.144531 26.15625 114.285156 26.148438 C 114.425781 26.140625 114.535156 26.128906 114.613281 26.121094 C 114.761719 26.097656 114.894531 26.0625 115.011719 26.019531 C 115.128906 25.976563 115.234375 25.921875 115.332031 25.863281 C 115.429688 25.800781 115.515625 25.726563 115.59375 25.640625 C 115.671875 25.554688 115.742188 25.457031 115.804688 25.34375 C 115.863281 25.230469 115.910156 25.109375 115.941406 24.980469 C 115.972656 24.851563 115.984375 24.710938 115.984375 24.566406 C 115.984375 24.390625 115.964844 24.230469 115.921875 24.078125 C 115.878906 23.929688 115.8125 23.789063 115.726563 23.65625 C 115.636719 23.539063 115.53125 23.429688 115.402344 23.339844 C 115.277344 23.25 115.136719 23.179688 114.980469 23.125 C 114.8125 23.074219 114.617188 23.035156 114.398438 23.007813 C 114.175781 22.984375 113.910156 22.96875 113.605469 22.96875 L 111.433594 22.957031 L 111.433594 26.148438 L 113.777344 26.148438 "/>
<path style=" stroke:none;fill-rule:nonzero;fill:rgb(31.399536%,34.498596%,35.299683%);fill-opacity:1;" d="M 123.238281 26.414063 C 123.019531 26.59375 122.8125 26.75 122.609375 26.878906 C 122.410156 27.011719 122.210938 27.109375 122.011719 27.179688 C 121.816406 27.238281 121.613281 27.289063 121.402344 27.320313 C 121.1875 27.355469 120.96875 27.375 120.742188 27.375 C 120.367188 27.375 120.035156 27.332031 119.753906 27.25 C 119.472656 27.167969 119.230469 27.039063 119.027344 26.855469 C 118.828125 26.683594 118.679688 26.480469 118.578125 26.246094 C 118.476563 26.011719 118.425781 25.757813 118.425781 25.480469 C 118.425781 25.308594 118.441406 25.148438 118.480469 25 C 118.515625 24.855469 118.570313 24.710938 118.648438 24.570313 C 118.726563 24.433594 118.816406 24.3125 118.917969 24.203125 C 119.019531 24.09375 119.125 24 119.238281 23.921875 C 119.359375 23.835938 119.488281 23.761719 119.628906 23.695313 C 119.769531 23.632813 119.917969 23.582031 120.074219 23.546875 C 120.128906 23.53125 120.1875 23.515625 120.257813 23.503906 C 120.328125 23.488281 120.40625 23.476563 120.492188 23.457031 C 120.570313 23.449219 120.664063 23.433594 120.769531 23.417969 C 120.871094 23.402344 120.980469 23.386719 121.09375 23.378906 C 121.558594 23.328125 121.957031 23.265625 122.296875 23.199219 C 122.636719 23.128906 122.917969 23.054688 123.136719 22.976563 C 123.136719 22.933594 123.136719 22.898438 123.136719 22.867188 C 123.136719 22.835938 123.140625 22.808594 123.148438 22.78125 C 123.148438 22.765625 123.148438 22.746094 123.148438 22.726563 C 123.148438 22.703125 123.148438 22.6875 123.148438 22.679688 C 123.148438 22.453125 123.117188 22.257813 123.0625 22.09375 C 123.007813 21.929688 122.925781 21.800781 122.820313 21.707031 C 122.671875 21.578125 122.488281 21.480469 122.269531 21.414063 C 122.054688 21.351563 121.800781 21.316406 121.511719 21.316406 C 121.242188 21.316406 121.007813 21.339844 120.808594 21.386719 C 120.605469 21.4375 120.441406 21.507813 120.308594 21.605469 C 120.1875 21.6875 120.078125 21.816406 119.980469 21.984375 C 119.886719 22.152344 119.808594 22.359375 119.746094 22.601563 L 118.621094 22.433594 C 118.675781 22.199219 118.742188 21.984375 118.824219 21.792969 C 118.90625 21.597656 119.007813 21.429688 119.121094 21.292969 C 119.242188 21.144531 119.386719 21.015625 119.558594 20.902344 C 119.726563 20.792969 119.921875 20.695313 120.140625 20.617188 C 120.367188 20.53125 120.605469 20.46875 120.859375 20.429688 C 121.113281 20.390625 121.386719 20.371094 121.683594 20.371094 C 121.972656 20.371094 122.230469 20.386719 122.46875 20.421875 C 122.703125 20.457031 122.910156 20.507813 123.097656 20.578125 C 123.269531 20.636719 123.425781 20.710938 123.558594 20.796875 C 123.695313 20.886719 123.804688 20.980469 123.894531 21.082031 C 123.980469 21.1875 124.054688 21.304688 124.109375 21.433594 C 124.164063 21.5625 124.210938 21.707031 124.246094 21.863281 C 124.265625 21.957031 124.277344 22.09375 124.285156 22.269531 C 124.292969 22.449219 124.300781 22.664063 124.300781 22.914063 L 124.300781 24.417969 C 124.300781 24.953125 124.304688 25.390625 124.316406 25.726563 C 124.332031 26.0625 124.351563 26.300781 124.378906 26.441406 C 124.402344 26.578125 124.441406 26.714844 124.488281 26.855469 C 124.535156 26.992188 124.59375 27.117188 124.664063 27.230469 L 123.460938 27.230469 C 123.398438 27.117188 123.351563 26.996094 123.316406 26.859375 C 123.28125 26.726563 123.257813 26.582031 123.238281 26.425781 Z M 122.355469 24.113281 C 122.046875 24.183594 121.683594 24.25 121.265625 24.300781 C 121.027344 24.335938 120.824219 24.371094 120.65625 24.410156 C 120.484375 24.449219 120.355469 24.488281 120.257813 24.535156 C 120.160156 24.578125 120.074219 24.628906 120.003906 24.6875 C 119.929688 24.75 119.863281 24.824219 119.8125 24.910156 C 119.753906 24.988281 119.707031 25.070313 119.683594 25.164063 C 119.65625 25.253906 119.644531 25.347656 119.644531 25.441406 C 119.644531 25.597656 119.675781 25.738281 119.734375 25.863281 C 119.796875 25.988281 119.882813 26.101563 119.996094 26.207031 C 120.117188 26.308594 120.265625 26.386719 120.433594 26.433594 C 120.605469 26.480469 120.796875 26.503906 121.015625 26.503906 C 121.242188 26.503906 121.453125 26.480469 121.648438 26.433594 C 121.847656 26.386719 122.027344 26.316406 122.191406 26.21875 C 122.367188 26.125 122.519531 26.007813 122.644531 25.875 C 122.769531 25.742188 122.871094 25.59375 122.949219 25.429688 C 123.011719 25.308594 123.058594 25.152344 123.089844 24.960938 C 123.117188 24.769531 123.136719 24.546875 123.136719 24.289063 L 123.136719 23.859375 C 122.925781 23.953125 122.664063 24.039063 122.355469 24.113281 "/>
<path style=" stroke:none;fill-rule:nonzero;fill:rgb(31.399536%,34.498596%,35.299683%);fill-opacity:1;" d="M 126.070313 20.511719 L 127.113281 20.511719 L 127.113281 21.472656 C 127.367188 21.109375 127.675781 20.835938 128.03125 20.648438 C 128.390625 20.464844 128.804688 20.371094 129.273438 20.371094 C 129.472656 20.371094 129.671875 20.390625 129.859375 20.429688 C 130.054688 20.46875 130.230469 20.523438 130.398438 20.589844 C 130.570313 20.660156 130.722656 20.742188 130.851563 20.835938 C 130.976563 20.933594 131.082031 21.042969 131.171875 21.164063 C 131.257813 21.273438 131.328125 21.402344 131.386719 21.542969 C 131.441406 21.6875 131.488281 21.839844 131.523438 22.003906 C 131.539063 22.117188 131.554688 22.265625 131.566406 22.453125 C 131.582031 22.636719 131.589844 22.859375 131.589844 23.121094 L 131.589844 27.230469 L 130.4375 27.230469 L 130.4375 23.144531 C 130.4375 22.921875 130.425781 22.722656 130.402344 22.550781 C 130.382813 22.375 130.351563 22.234375 130.308594 22.121094 C 130.261719 22 130.203125 21.894531 130.121094 21.804688 C 130.046875 21.710938 129.945313 21.632813 129.820313 21.5625 C 129.710938 21.496094 129.585938 21.441406 129.449219 21.40625 C 129.3125 21.375 129.171875 21.355469 129.023438 21.355469 C 128.78125 21.355469 128.550781 21.394531 128.339844 21.472656 C 128.125 21.550781 127.929688 21.667969 127.757813 21.824219 C 127.582031 21.980469 127.449219 22.203125 127.355469 22.492188 C 127.265625 22.78125 127.21875 23.140625 127.21875 23.574219 L 127.21875 27.230469 L 126.070313 27.230469 L 126.070313 20.511719 "/>
<path style=" stroke:none;fill-rule:nonzero;fill:rgb(31.399536%,34.498596%,35.299683%);fill-opacity:1;" d="M 133.351563 17.964844 L 134.503906 17.964844 L 134.503906 23.253906 L 137.222656 20.519531 L 138.714844 20.519531 L 136.113281 23.007813 L 138.976563 27.238281 L 137.550781 27.238281 L 135.3125 23.800781 L 134.503906 24.578125 L 134.503906 27.238281 L 133.351563 27.238281 L 133.351563 17.964844 "/>
<path style=" stroke:none;fill-rule:nonzero;fill:rgb(31.399536%,34.498596%,35.299683%);fill-opacity:1;" d="M 143.601563 17.964844 L 144.832031 17.964844 L 144.832031 26.148438 L 149.449219 26.148438 L 149.449219 27.238281 L 143.601563 27.238281 L 143.601563 17.964844 "/>
<path style=" stroke:none;fill-rule:nonzero;fill:rgb(31.399536%,34.498596%,35.299683%);fill-opacity:1;" d="M 150.777344 17.964844 L 151.929688 17.964844 L 151.929688 19.273438 L 150.777344 19.273438 Z M 150.777344 20.519531 L 151.929688 20.519531 L 151.929688 27.238281 L 150.777344 27.238281 L 150.777344 20.519531 "/>
<path style=" stroke:none;fill-rule:nonzero;fill:rgb(31.399536%,34.498596%,35.299683%);fill-opacity:1;" d="M 153.660156 20.511719 L 154.695313 20.511719 L 154.695313 21.460938 C 154.800781 21.296875 154.925781 21.148438 155.066406 21.019531 C 155.210938 20.890625 155.371094 20.773438 155.546875 20.667969 C 155.71875 20.574219 155.910156 20.5 156.113281 20.449219 C 156.320313 20.398438 156.53125 20.371094 156.75 20.371094 C 157.003906 20.371094 157.230469 20.398438 157.4375 20.449219 C 157.640625 20.5 157.824219 20.578125 157.992188 20.679688 C 158.148438 20.785156 158.285156 20.910156 158.402344 21.050781 C 158.519531 21.195313 158.609375 21.359375 158.671875 21.550781 C 158.933594 21.164063 159.238281 20.867188 159.59375 20.667969 C 159.945313 20.46875 160.335938 20.371094 160.765625 20.371094 C 161.09375 20.371094 161.390625 20.417969 161.652344 20.507813 C 161.914063 20.597656 162.136719 20.738281 162.320313 20.929688 C 162.492188 21.109375 162.628906 21.34375 162.71875 21.628906 C 162.8125 21.914063 162.855469 22.25 162.855469 22.640625 L 162.855469 27.230469 L 161.71875 27.230469 L 161.71875 23.003906 C 161.71875 22.789063 161.710938 22.59375 161.691406 22.425781 C 161.675781 22.257813 161.644531 22.125 161.601563 22.03125 C 161.566406 21.925781 161.515625 21.835938 161.441406 21.757813 C 161.375 21.679688 161.289063 21.609375 161.195313 21.550781 C 161.101563 21.480469 160.996094 21.433594 160.882813 21.402344 C 160.769531 21.371094 160.640625 21.355469 160.503906 21.355469 C 160.265625 21.355469 160.050781 21.398438 159.855469 21.480469 C 159.65625 21.5625 159.480469 21.679688 159.324219 21.835938 C 159.160156 21.992188 159.035156 22.195313 158.960938 22.445313 C 158.882813 22.695313 158.84375 22.996094 158.84375 23.339844 L 158.84375 27.230469 L 157.703125 27.230469 L 157.703125 22.875 C 157.703125 22.632813 157.679688 22.414063 157.632813 22.21875 C 157.585938 22.023438 157.511719 21.867188 157.414063 21.746094 C 157.328125 21.617188 157.207031 21.519531 157.050781 21.453125 C 156.894531 21.386719 156.710938 21.355469 156.5 21.355469 C 156.335938 21.355469 156.179688 21.378906 156.027344 21.421875 C 155.882813 21.464844 155.738281 21.527344 155.597656 21.617188 C 155.457031 21.703125 155.339844 21.804688 155.246094 21.925781 C 155.148438 22.046875 155.066406 22.191406 154.996094 22.355469 C 154.9375 22.519531 154.890625 22.71875 154.859375 22.953125 C 154.828125 23.183594 154.8125 23.453125 154.8125 23.753906 L 154.8125 27.230469 L 153.660156 27.230469 L 153.660156 20.511719 "/>
<path style=" stroke:none;fill-rule:nonzero;fill:rgb(31.399536%,34.498596%,35.299683%);fill-opacity:1;" d="M 164.566406 17.964844 L 165.71875 17.964844 L 165.71875 19.273438 L 164.566406 19.273438 Z M 164.566406 20.519531 L 165.71875 20.519531 L 165.71875 27.238281 L 164.566406 27.238281 L 164.566406 20.519531 "/>
<path style=" stroke:none;fill-rule:nonzero;fill:rgb(31.399536%,34.498596%,35.299683%);fill-opacity:1;" d="M 169.964844 26.222656 L 170.136719 27.234375 C 169.972656 27.257813 169.816406 27.277344 169.671875 27.289063 C 169.527344 27.304688 169.394531 27.308594 169.273438 27.308594 C 169.0625 27.308594 168.878906 27.296875 168.71875 27.273438 C 168.554688 27.246094 168.414063 27.203125 168.292969 27.140625 C 168.179688 27.074219 168.082031 26.996094 167.996094 26.914063 C 167.914063 26.832031 167.851563 26.734375 167.808594 26.621094 C 167.765625 26.519531 167.730469 26.355469 167.710938 26.128906 C 167.6875 25.90625 167.679688 25.625 167.679688 25.289063 L 167.679688 21.398438 L 166.828125 21.398438 L 166.828125 20.515625 L 167.679688 20.515625 L 167.679688 18.855469 L 168.816406 18.167969 L 168.816406 20.515625 L 169.964844 20.515625 L 169.964844 21.398438 L 168.816406 21.398438 L 168.816406 25.339844 C 168.816406 25.511719 168.820313 25.652344 168.828125 25.753906 C 168.835938 25.859375 168.855469 25.929688 168.882813 25.976563 C 168.898438 26.019531 168.925781 26.058594 168.960938 26.097656 C 168.992188 26.136719 169.03125 26.167969 169.078125 26.195313 C 169.121094 26.222656 169.175781 26.242188 169.238281 26.253906 C 169.304688 26.265625 169.382813 26.273438 169.46875 26.273438 C 169.53125 26.273438 169.601563 26.269531 169.683594 26.261719 C 169.769531 26.25 169.859375 26.242188 169.964844 26.234375 L 169.964844 26.222656 "/>
<path style=" stroke:none;fill-rule:nonzero;fill:rgb(31.399536%,34.498596%,35.299683%);fill-opacity:1;" d="M 175.722656 25.078125 L 176.910156 25.21875 C 176.824219 25.574219 176.691406 25.882813 176.519531 26.148438 C 176.34375 26.414063 176.128906 26.640625 175.878906 26.828125 C 175.625 27.019531 175.335938 27.15625 175.007813 27.242188 C 174.679688 27.332031 174.320313 27.375 173.929688 27.375 C 173.433594 27.375 172.984375 27.300781 172.59375 27.160156 C 172.203125 27.015625 171.863281 26.792969 171.574219 26.492188 C 171.277344 26.1875 171.058594 25.824219 170.914063 25.402344 C 170.769531 24.980469 170.699219 24.496094 170.699219 23.949219 C 170.699219 23.378906 170.773438 22.875 170.921875 22.4375 C 171.066406 22.003906 171.289063 21.625 171.589844 21.304688 C 171.875 20.992188 172.210938 20.757813 172.59375 20.605469 C 172.980469 20.449219 173.402344 20.371094 173.863281 20.371094 C 174.324219 20.371094 174.738281 20.449219 175.105469 20.605469 C 175.472656 20.757813 175.800781 20.988281 176.085938 21.292969 C 176.375 21.59375 176.589844 21.960938 176.734375 22.394531 C 176.878906 22.824219 176.949219 23.320313 176.949219 23.871094 C 176.949219 23.90625 176.949219 23.949219 176.949219 24 C 176.949219 24.054688 176.949219 24.113281 176.949219 24.183594 L 171.890625 24.171875 C 171.90625 24.550781 171.96875 24.882813 172.070313 25.164063 C 172.175781 25.445313 172.324219 25.683594 172.515625 25.882813 C 172.707031 26.074219 172.921875 26.21875 173.15625 26.316406 C 173.394531 26.417969 173.652344 26.464844 173.941406 26.464844 C 174.148438 26.464844 174.34375 26.4375 174.523438 26.382813 C 174.703125 26.324219 174.863281 26.246094 175.015625 26.140625 C 175.160156 26.027344 175.296875 25.886719 175.414063 25.714844 C 175.53125 25.542969 175.632813 25.332031 175.722656 25.089844 Z M 171.953125 23.226563 L 175.734375 23.226563 C 175.707031 22.957031 175.660156 22.714844 175.589844 22.496094 C 175.519531 22.28125 175.425781 22.105469 175.300781 21.964844 C 175.117188 21.742188 174.90625 21.574219 174.667969 21.464844 C 174.429688 21.359375 174.164063 21.304688 173.875 21.304688 C 173.613281 21.304688 173.371094 21.351563 173.148438 21.441406 C 172.929688 21.53125 172.726563 21.664063 172.542969 21.835938 C 172.367188 22.007813 172.230469 22.210938 172.128906 22.445313 C 172.03125 22.679688 171.972656 22.941406 171.953125 23.238281 L 171.953125 23.226563 "/>
<path style=" stroke:none;fill-rule:nonzero;fill:rgb(31.399536%,34.498596%,35.299683%);fill-opacity:1;" d="M 182.746094 26.394531 C 182.527344 26.730469 182.265625 26.980469 181.949219 27.140625 C 181.636719 27.300781 181.269531 27.378906 180.851563 27.378906 C 180.582031 27.378906 180.320313 27.34375 180.074219 27.277344 C 179.824219 27.207031 179.585938 27.101563 179.359375 26.964844 C 179.132813 26.816406 178.929688 26.640625 178.753906 26.433594 C 178.574219 26.226563 178.421875 25.992188 178.300781 25.734375 C 178.179688 25.464844 178.085938 25.179688 178.027344 24.875 C 177.964844 24.574219 177.933594 24.25 177.933594 23.902344 C 177.933594 23.566406 177.964844 23.246094 178.019531 22.9375 C 178.074219 22.632813 178.160156 22.34375 178.273438 22.074219 C 178.386719 21.796875 178.527344 21.554688 178.699219 21.34375 C 178.871094 21.132813 179.0625 20.957031 179.28125 20.816406 C 179.507813 20.671875 179.746094 20.558594 180 20.488281 C 180.253906 20.414063 180.519531 20.375 180.800781 20.375 C 181 20.375 181.191406 20.398438 181.375 20.441406 C 181.558594 20.484375 181.726563 20.550781 181.886719 20.636719 C 182.050781 20.722656 182.199219 20.820313 182.328125 20.925781 C 182.460938 21.035156 182.574219 21.164063 182.667969 21.308594 L 182.667969 17.964844 L 183.808594 17.964844 L 183.808594 27.238281 L 182.746094 27.238281 Z M 179.109375 23.890625 C 179.109375 24.324219 179.15625 24.703125 179.25 25.027344 C 179.339844 25.351563 179.476563 25.621094 179.660156 25.835938 C 179.84375 26.050781 180.046875 26.210938 180.261719 26.316406 C 180.480469 26.421875 180.710938 26.472656 180.957031 26.472656 C 181.210938 26.472656 181.441406 26.421875 181.65625 26.316406 C 181.867188 26.210938 182.0625 26.0625 182.238281 25.863281 C 182.410156 25.65625 182.542969 25.394531 182.628906 25.085938 C 182.71875 24.773438 182.761719 24.410156 182.761719 23.996094 C 182.761719 23.539063 182.71875 23.140625 182.628906 22.800781 C 182.542969 22.464844 182.40625 22.1875 182.226563 21.972656 C 182.050781 21.753906 181.851563 21.59375 181.628906 21.484375 C 181.40625 21.378906 181.164063 21.324219 180.902344 21.324219 C 180.648438 21.324219 180.417969 21.375 180.203125 21.480469 C 179.988281 21.582031 179.796875 21.738281 179.621094 21.945313 C 179.457031 22.152344 179.328125 22.417969 179.242188 22.742188 C 179.15625 23.066406 179.109375 23.453125 179.109375 23.902344 L 179.109375 23.890625 "/>
<path style=" stroke:none;fill-rule:nonzero;fill:rgb(31.399536%,34.498596%,35.299683%);fill-opacity:1;" d="M 55.214844 5.199219 L 55.214844 14.292969 L 54.027344 12.925781 L 54.027344 8.925781 C 54.027344 8.777344 53.894531 8.605469 53.628906 8.40625 C 53.363281 8.207031 53.144531 8.105469 52.96875 8.105469 C 52.648438 8.105469 52.210938 8.519531 51.644531 9.351563 C 51.28125 9.878906 51.082031 10.164063 51.042969 10.207031 C 50.738281 10.59375 50.480469 10.804688 50.269531 10.839844 C 50.1875 10.851563 50.070313 10.855469 49.914063 10.855469 C 49.515625 10.855469 49.25 10.800781 49.121094 10.683594 C 48.875 10.605469 48.59375 10.324219 48.277344 9.84375 C 48.230469 9.773438 48.027344 9.417969 47.675781 8.777344 L 48.609375 7.902344 C 48.644531 8.222656 48.738281 8.527344 48.894531 8.8125 C 49.046875 9.097656 49.1875 9.242188 49.316406 9.242188 C 49.503906 9.242188 49.980469 8.710938 50.742188 7.652344 C 50.683594 7.117188 50.5625 6.726563 50.375 6.476563 C 50.152344 6.167969 49.800781 6.003906 49.320313 5.980469 C 48.757813 5.957031 48.410156 5.929688 48.28125 5.894531 C 48 5.800781 47.730469 5.570313 47.472656 5.203125 C 47.34375 5.144531 46.894531 4.75 46.117188 4.011719 L 56.351563 4.011719 L 57.578125 5.199219 Z M 51.53125 6.921875 C 52.039063 6.585938 52.359375 6.417969 52.488281 6.417969 C 52.898438 6.417969 53.414063 6.796875 54.027344 7.558594 L 54.027344 5.199219 L 50.683594 5.199219 C 51.296875 5.738281 51.582031 6.3125 51.53125 6.921875 "/>
<path style=" stroke:none;fill-rule:nonzero;fill:rgb(31.399536%,34.498596%,35.299683%);fill-opacity:1;" d="M 57.613281 4.875 C 57.550781 4.109375 57.523438 3.234375 57.523438 2.261719 L 58.199219 2.816406 C 58.28125 3.359375 58.429688 3.757813 58.648438 4.011719 L 59.933594 4.011719 L 61.148438 5.199219 L 58.710938 5.199219 L 58.710938 14.511719 L 57.523438 13.238281 L 57.523438 6.714844 C 57.523438 6.289063 57.378906 5.929688 57.09375 5.636719 C 56.808594 5.34375 56.445313 5.199219 56.003906 5.199219 C 55.933594 5.199219 55.855469 5.199219 55.777344 5.199219 L 54.554688 4.035156 C 55.066406 3.976563 55.441406 3.949219 55.671875 3.949219 C 56.59375 3.949219 57.242188 4.257813 57.613281 4.875 "/>
<path style=" stroke:none;fill-rule:nonzero;fill:rgb(31.399536%,34.498596%,35.299683%);fill-opacity:1;" d="M 61.929688 1.753906 L 62.265625 1.753906 L 63.488281 1.691406 C 64.375 1.648438 64.835938 1.628906 64.871094 1.628906 C 65.664063 1.628906 66.308594 1.828125 66.796875 2.230469 C 67.3125 2.667969 67.570313 3.257813 67.570313 4.003906 L 68.984375 4.003906 L 70.210938 5.191406 L 64.335938 5.191406 L 64.335938 7.578125 C 64.335938 7.925781 64.460938 8.097656 64.707031 8.097656 C 64.730469 8.097656 64.984375 7.835938 65.46875 7.308594 C 65.949219 6.78125 66.285156 6.519531 66.476563 6.519531 C 66.957031 6.519531 67.386719 6.894531 67.765625 7.652344 C 68.082031 8.285156 68.242188 8.839844 68.242188 9.320313 C 68.242188 10.375 67.972656 11.21875 67.4375 11.851563 C 66.851563 12.515625 66.03125 12.847656 64.96875 12.847656 C 63.835938 12.847656 62.910156 12.402344 62.183594 11.515625 C 61.71875 10.941406 61.261719 10.019531 60.820313 8.75 C 60.644531 8.277344 60.515625 7.691406 60.433594 6.988281 C 60.363281 6.390625 60.300781 5.789063 60.242188 5.191406 L 61.152344 5.675781 C 61.183594 6.332031 61.332031 7.042969 61.585938 7.800781 C 61.855469 8.609375 62.164063 9.230469 62.515625 9.667969 L 63.160156 10.464844 C 63.476563 10.84375 64.023438 11.035156 64.804688 11.035156 C 65.421875 11.035156 65.972656 10.835938 66.453125 10.433594 C 66.9375 10.035156 67.179688 9.542969 67.179688 8.957031 C 67.179688 8.730469 67.101563 8.5 66.949219 8.269531 C 66.726563 8.605469 66.378906 8.933594 65.90625 9.261719 C 65.433594 9.589844 65.039063 9.753906 64.722656 9.753906 C 64.296875 9.753906 63.933594 9.582031 63.625 9.238281 C 63.402344 8.972656 63.242188 8.609375 63.148438 8.152344 L 63.148438 5.191406 L 59.660156 5.191406 L 58.492188 4.003906 L 65.679688 4.003906 C 65.75 3.960938 65.839844 3.941406 65.945313 3.941406 C 65.988281 3.941406 66.046875 3.941406 66.117188 3.941406 C 66.199219 3.984375 66.253906 4.003906 66.277344 4.003906 C 66.425781 4.003906 66.484375 3.925781 66.453125 3.765625 L 66.453125 3.671875 C 66.453125 3.503906 66.3125 3.367188 66.03125 3.269531 C 65.808594 3.195313 65.597656 3.160156 65.398438 3.160156 C 65.117188 3.160156 64.703125 3.179688 64.15625 3.222656 C 63.605469 3.265625 63.191406 3.285156 62.910156 3.285156 C 62.222656 3.285156 61.601563 3.125 61.054688 2.804688 C 60.386719 2.402344 60.054688 1.867188 60.054688 1.203125 C 60.054688 1.054688 60.136719 0.824219 60.300781 0.515625 C 60.46875 0.160156 60.613281 0.0078125 60.742188 0.0664063 L 61.429688 0.355469 C 61.078125 0.605469 60.898438 0.816406 60.898438 0.988281 C 60.898438 1.191406 61.007813 1.367188 61.222656 1.515625 C 61.4375 1.664063 61.675781 1.742188 61.929688 1.753906 "/>
<path style=" stroke:none;fill-rule:nonzero;fill:rgb(31.399536%,34.498596%,35.299683%);fill-opacity:1;" d="M 76.199219 5.199219 L 76.199219 14.355469 C 75.746094 13.757813 75.289063 13.121094 74.835938 12.445313 C 74.417969 11.824219 73.835938 11.324219 73.097656 10.945313 C 72.359375 10.566406 71.597656 10.390625 70.820313 10.414063 L 69.160156 8.261719 L 70.039063 8.296875 C 70.085938 8.296875 70.417969 8.222656 71.027344 8.070313 C 71.53125 7.953125 72.027344 7.710938 72.507813 7.339844 C 73.074219 6.933594 73.355469 6.527344 73.355469 6.121094 C 73.355469 5.855469 73.265625 5.632813 73.089844 5.460938 C 72.910156 5.285156 72.6875 5.199219 72.414063 5.199219 C 72.273438 5.199219 72.054688 5.269531 71.757813 5.410156 C 71.460938 5.550781 71.253906 5.679688 71.136719 5.792969 C 71.40625 6.121094 71.542969 6.425781 71.542969 6.707031 C 71.542969 7.023438 71.40625 7.28125 71.140625 7.484375 C 70.871094 7.691406 70.585938 7.792969 70.28125 7.792969 C 69.882813 7.792969 69.5625 7.664063 69.316406 7.40625 C 69.070313 7.148438 68.949219 6.824219 68.949219 6.433594 C 68.949219 5.726563 69.304688 5.128906 70.019531 4.648438 C 70.648438 4.222656 71.328125 4.011719 72.050781 4.011719 C 72.765625 4.011719 73.359375 4.253906 73.832031 4.742188 C 74.304688 5.226563 74.542969 5.820313 74.542969 6.515625 C 74.542969 7.546875 73.902344 8.476563 72.621094 9.3125 C 73.78125 10 74.578125 10.617188 75.011719 11.167969 L 75.011719 2.105469 L 75.8125 3.035156 C 75.835938 3.195313 75.863281 3.359375 75.902344 3.519531 C 75.945313 3.75 76.011719 3.890625 76.09375 3.949219 L 77.261719 3.949219 L 78.5 5.199219 L 76.199219 5.199219 "/>
<path style=" stroke:none;fill-rule:nonzero;fill:rgb(31.399536%,34.498596%,35.299683%);fill-opacity:1;" d="M 80.363281 5.5625 C 80.316406 5.480469 80.1875 5.359375 79.976563 5.199219 L 77.265625 5.199219 L 76.042969 4.011719 L 82.214844 4.011719 C 82.894531 4.011719 83.226563 3.871094 83.214844 3.589844 C 83.203125 3.328125 82.835938 3.199219 82.109375 3.199219 C 81.832031 3.199219 81.46875 3.214844 81.027344 3.246094 C 80.582031 3.277344 80.222656 3.292969 79.941406 3.292969 C 79.242188 3.292969 78.617188 3.132813 78.070313 2.808594 C 77.40625 2.417969 77.074219 1.878906 77.074219 1.1875 C 77.074219 0.488281 77.335938 0.136719 77.859375 0.136719 C 77.988281 0.136719 78.269531 0.164063 78.699219 0.222656 C 78.179688 0.539063 77.917969 0.792969 77.917969 0.992188 C 77.917969 1.222656 78.042969 1.414063 78.300781 1.566406 C 78.523438 1.71875 78.78125 1.792969 79.070313 1.792969 C 79.304688 1.792969 79.644531 1.761719 80.09375 1.699219 C 80.542969 1.636719 80.878906 1.605469 81.097656 1.605469 C 81.984375 1.605469 82.632813 1.738281 83.039063 2.003906 C 83.832031 2.5 84.222656 3.167969 84.210938 4.011719 L 85.523438 4.011719 L 86.746094 5.199219 L 81.359375 5.199219 C 81.40625 5.3125 81.527344 5.394531 81.726563 5.441406 C 82.617188 5.648438 83.265625 6.105469 83.675781 6.816406 C 84.003906 7.390625 84.167969 7.886719 84.167969 8.296875 C 84.167969 8.882813 83.949219 9.445313 83.507813 9.984375 C 83.070313 10.527344 82.5625 10.847656 81.988281 10.949219 L 81.796875 10.984375 C 82.296875 11.292969 83.019531 11.804688 83.964844 12.515625 L 85.332031 13.773438 L 85.785156 15.667969 C 84.675781 14.425781 83.589844 13.46875 82.523438 12.796875 C 81.457031 12.121094 80.257813 11.628906 78.929688 11.320313 L 77.582031 8.542969 C 78.632813 9.203125 79.605469 9.535156 80.507813 9.535156 C 81.019531 9.535156 81.503906 9.402344 81.960938 9.140625 C 82.472656 8.855469 82.730469 8.503906 82.730469 8.082031 C 82.730469 7.75 82.632813 7.472656 82.441406 7.25 C 82.25 7.027344 81.996094 6.917969 81.679688 6.917969 C 81.609375 6.917969 81.539063 6.929688 81.472656 6.953125 C 81.425781 7.351563 81.238281 7.714844 80.910156 8.046875 C 80.585938 8.378906 80.21875 8.542969 79.8125 8.542969 C 79.460938 8.542969 79.160156 8.46875 78.902344 8.320313 C 78.597656 8.125 78.449219 7.847656 78.449219 7.492188 C 78.449219 6.527344 79.085938 5.882813 80.363281 5.5625 "/>
<path style=" stroke:none;fill-rule:nonzero;fill:rgb(31.399536%,34.498596%,35.299683%);fill-opacity:1;" d="M 93.171875 1.664063 L 93.277344 1.648438 L 93.433594 1.628906 C 93.9375 1.582031 94.394531 1.558594 94.804688 1.558594 C 95.679688 1.558594 96.386719 1.738281 96.925781 2.097656 C 97.542969 2.523438 97.84375 3.15625 97.820313 3.996094 L 98.871094 3.996094 L 100.101563 5.183594 L 93.339844 5.183594 L 93.339844 10.769531 C 93.339844 11.066406 93.507813 11.214844 93.84375 11.214844 C 94.238281 11.214844 94.691406 10.96875 95.195313 10.472656 C 95.703125 9.976563 96.023438 9.496094 96.164063 9.027344 L 96.128906 9.027344 C 95.792969 9.027344 95.492188 8.925781 95.230469 8.71875 C 94.96875 8.515625 94.839844 8.234375 94.839844 7.878906 C 94.839844 7.492188 94.96875 7.175781 95.222656 6.929688 C 95.476563 6.683594 95.804688 6.558594 96.199219 6.558594 C 96.6875 6.558594 97.082031 6.75 97.386719 7.125 C 97.6875 7.503906 97.839844 7.925781 97.839844 8.390625 C 97.839844 9.441406 97.519531 10.292969 96.878906 10.945313 C 96.355469 11.46875 95.933594 11.847656 95.621094 12.074219 C 95.074219 12.441406 94.527344 12.621094 93.980469 12.621094 C 93.605469 12.621094 93.203125 12.496094 92.773438 12.246094 C 92.296875 11.949219 92.058594 11.617188 92.058594 11.25 L 92.058594 9.277344 C 92.046875 9.242188 92.027344 9.1875 92.003906 9.105469 L 91.917969 8.867188 C 91.753906 8.328125 91.445313 8.058594 90.988281 8.058594 C 90.6875 8.058594 90.25 8.476563 89.675781 9.3125 C 89.328125 9.839844 89.128906 10.132813 89.082031 10.191406 C 88.789063 10.578125 88.535156 10.792969 88.3125 10.824219 C 88.230469 10.835938 88.113281 10.84375 87.960938 10.84375 C 87.566406 10.84375 87.300781 10.785156 87.175781 10.671875 C 86.929688 10.589844 86.648438 10.308594 86.335938 9.828125 C 86.289063 9.761719 86.089844 9.40625 85.738281 8.761719 L 86.664063 7.886719 C 86.699219 8.207031 86.792969 8.511719 86.945313 8.796875 C 87.09375 9.085938 87.234375 9.226563 87.363281 9.226563 C 87.558594 9.226563 88.03125 8.695313 88.777344 7.628906 C 88.671875 6.617188 88.285156 6.066406 87.625 5.976563 C 87.25 5.953125 86.878906 5.925781 86.507813 5.890625 C 86.097656 5.84375 85.75 5.695313 85.457031 5.441406 L 85.265625 5.011719 L 84.183594 3.996094 L 96.617188 3.996094 C 96.628906 3.816406 96.636719 3.707031 96.636719 3.671875 C 96.636719 3.511719 96.539063 3.375 96.347656 3.261719 C 96.152344 3.148438 95.945313 3.089844 95.722656 3.089844 C 95.433594 3.089844 95.003906 3.113281 94.445313 3.152344 C 93.882813 3.195313 93.464844 3.214844 93.183594 3.214844 C 92.480469 3.214844 91.855469 3.054688 91.304688 2.738281 C 90.640625 2.347656 90.308594 1.8125 90.308594 1.128906 C 90.308594 0.796875 90.40625 0.503906 90.609375 0.253906 C 90.703125 0.0703125 90.929688 -0.015625 91.28125 -0.00390625 C 91.332031 0.179688 91.355469 0.363281 91.355469 0.546875 C 91.199219 0.683594 91.121094 0.8125 91.121094 0.925781 C 91.121094 1.167969 91.238281 1.359375 91.480469 1.5 C 91.71875 1.644531 91.992188 1.714844 92.296875 1.714844 C 92.621094 1.714844 92.914063 1.699219 93.171875 1.664063 Z M 89.589844 6.871094 C 89.761719 6.734375 89.980469 6.59375 90.234375 6.441406 C 90.65625 6.429688 91.007813 6.523438 91.285156 6.71875 C 91.472656 6.84375 91.714844 7.101563 92.003906 7.492188 L 92.058594 7.542969 L 92.058594 5.183594 L 88.746094 5.183594 C 89.34375 5.714844 89.625 6.277344 89.589844 6.871094 "/>
<path style=" stroke:none;fill-rule:nonzero;fill:rgb(31.399536%,34.498596%,35.299683%);fill-opacity:1;" d="M 110.179688 5.199219 L 110.179688 14.480469 C 109.9375 14.160156 109.609375 13.660156 109.199219 12.980469 C 108.839844 12.121094 108.273438 11.425781 107.507813 10.890625 C 106.742188 10.355469 105.894531 10.054688 104.960938 9.984375 L 103.683594 8.210938 C 105.453125 6.972656 107.222656 6.066406 108.992188 5.492188 L 108.992188 5.199219 L 103.425781 5.199219 L 102.210938 4.011719 L 111.359375 4.011719 L 112.566406 5.199219 Z M 108.992188 7.230469 C 108.097656 7.5625 107.144531 8.042969 106.128906 8.675781 C 107.332031 9.234375 108.285156 9.992188 108.992188 10.941406 L 108.992188 7.230469 "/>
<path style=" stroke:none;fill-rule:nonzero;fill:rgb(31.399536%,34.498596%,35.299683%);fill-opacity:1;" d="M 115.21875 5.136719 C 114.246094 5.136719 113.757813 5.679688 113.757813 6.769531 C 113.757813 7.273438 113.863281 8.011719 114.070313 8.984375 C 114.277344 9.957031 114.382813 10.695313 114.382813 11.199219 C 114.382813 12.21875 113.855469 13.042969 112.804688 13.671875 C 112.3125 13.980469 111.925781 14.136719 111.644531 14.136719 C 111.492188 14.136719 111.351563 14.082031 111.222656 13.972656 C 111.09375 13.863281 111.03125 13.734375 111.03125 13.585938 C 111.03125 13.425781 111.164063 13.304688 111.433594 13.226563 C 111.605469 13.167969 111.78125 13.109375 111.957031 13.054688 C 112.316406 12.789063 112.5625 12.542969 112.691406 12.316406 C 112.820313 12.085938 112.882813 11.757813 112.882813 11.335938 C 112.882813 10.945313 112.773438 10.375 112.554688 9.625 C 112.335938 8.875 112.226563 8.304688 112.226563 7.914063 C 112.226563 7.375 112.332031 6.882813 112.546875 6.4375 C 112.675781 6.171875 112.949219 5.761719 113.375 5.199219 L 111.1875 5.199219 L 109.945313 4.011719 L 115.648438 4.011719 L 116.941406 5.199219 C 116.472656 5.15625 115.898438 5.136719 115.21875 5.136719 "/>
<path style=" stroke:none;fill-rule:nonzero;fill:rgb(31.399536%,34.498596%,35.299683%);fill-opacity:1;" d="M 116.785156 4.875 C 116.722656 4.109375 116.691406 3.234375 116.691406 2.261719 L 117.371094 2.816406 C 117.449219 3.359375 117.601563 3.757813 117.820313 4.011719 L 119.105469 4.011719 L 120.316406 5.199219 L 117.882813 5.199219 L 117.882813 14.511719 L 116.691406 13.238281 L 116.691406 6.714844 C 116.691406 6.289063 116.550781 5.929688 116.265625 5.636719 C 115.980469 5.34375 115.617188 5.199219 115.175781 5.199219 C 115.105469 5.199219 115.027344 5.199219 114.945313 5.199219 L 113.726563 4.035156 C 114.238281 3.976563 114.609375 3.949219 114.84375 3.949219 C 115.765625 3.949219 116.410156 4.257813 116.785156 4.875 "/>
<path style=" stroke:none;fill-rule:nonzero;fill:rgb(31.399536%,34.498596%,35.299683%);fill-opacity:1;" d="M 122.269531 8.707031 C 122.113281 8.765625 121.894531 8.792969 121.601563 8.792969 C 120.996094 8.792969 120.480469 8.574219 120.054688 8.136719 C 119.628906 7.695313 119.414063 7.183594 119.414063 6.59375 C 119.414063 6.0625 119.628906 5.574219 120.0625 5.125 C 120.492188 4.675781 120.976563 4.449219 121.515625 4.449219 C 122.109375 4.449219 122.609375 4.675781 123.019531 5.125 C 123.429688 5.574219 123.632813 6.085938 123.632813 6.664063 C 123.632813 7.046875 123.496094 7.453125 123.222656 7.882813 C 122.945313 8.316406 122.628906 8.589844 122.269531 8.707031 Z M 119.957031 10.992188 L 119.957031 8.605469 C 121.472656 9.785156 123.203125 11.566406 125.148438 13.949219 L 125.148438 15.167969 C 123.5625 13.65625 121.832031 12.265625 119.957031 10.992188 Z M 122.007813 5.636719 C 121.675781 5.636719 121.371094 5.796875 121.089844 6.117188 C 120.804688 6.433594 120.664063 6.773438 120.664063 7.125 C 120.664063 7.445313 120.773438 7.605469 121 7.605469 C 121.1875 7.605469 121.445313 7.5 121.769531 7.285156 C 122.09375 7.074219 122.289063 6.882813 122.359375 6.71875 C 122.394531 6.636719 122.414063 6.457031 122.414063 6.1875 C 122.414063 5.820313 122.277344 5.636719 122.007813 5.636719 "/>
<path style=" stroke:none;fill-rule:nonzero;fill:rgb(31.399536%,34.498596%,35.299683%);fill-opacity:1;" d="M 132.648438 8.828125 C 132.589844 8.335938 132.335938 7.910156 131.882813 7.550781 C 131.433594 7.191406 130.949219 7.011719 130.4375 7.011719 L 130.367188 7.011719 L 130.367188 14.136719 L 129.71875 13.5 C 129.519531 12.9375 129.398438 12.597656 129.351563 12.484375 C 129.222656 12.230469 129.007813 11.925781 128.707031 11.570313 C 127.855469 10.582031 126.863281 10.027344 125.734375 9.898438 L 124.371094 8.265625 C 125.914063 7 127.519531 6.105469 129.179688 5.578125 L 129.179688 5.199219 L 123.945313 5.199219 L 122.710938 4.011719 L 134.097656 4.011719 L 135.304688 5.199219 L 130.367188 5.199219 L 130.367188 5.480469 C 131.242188 5.480469 132.015625 5.878906 132.683594 6.679688 C 133.324219 7.425781 133.648438 8.226563 133.648438 9.082031 C 133.648438 9.550781 133.511719 9.960938 133.242188 10.316406 C 132.941406 10.71875 132.542969 10.917969 132.054688 10.917969 C 131.714844 10.917969 131.410156 10.800781 131.144531 10.566406 C 130.875 10.332031 130.742188 10.046875 130.742188 9.703125 C 130.742188 9.328125 130.933594 8.984375 131.324219 8.675781 C 131.546875 8.609375 131.746094 8.574219 131.925781 8.574219 C 132.148438 8.574219 132.390625 8.660156 132.648438 8.828125 Z M 129.179688 7.128906 C 128.59375 7.367188 127.777344 7.84375 126.730469 8.554688 C 127.730469 9.035156 128.546875 9.761719 129.179688 10.738281 L 129.179688 7.128906 "/>
<path style=" stroke:none;fill-rule:nonzero;fill:rgb(31.399536%,34.498596%,35.299683%);fill-opacity:1;" d="M 146.546875 2.558594 C 145.414063 1.734375 144.292969 1.324219 143.1875 1.324219 C 142.078125 1.324219 141.175781 1.863281 140.476563 2.945313 C 140.335938 3.160156 140.265625 3.3125 140.265625 3.390625 C 140.300781 3.484375 140.386719 3.691406 140.527344 4.011719 L 142.117188 4.011719 L 143.34375 5.199219 L 140.914063 5.199219 L 140.914063 14.136719 L 139.664063 12.96875 L 139.664063 5.199219 L 138.476563 5.199219 L 137.257813 4.011719 L 139.496094 4.011719 C 139.074219 3.621094 138.867188 3.277344 138.867188 2.980469 C 138.867188 2.660156 138.929688 2.390625 139.058594 2.171875 C 139.910156 0.753906 141.019531 0.0429688 142.382813 0.0429688 C 144.214844 0.0429688 145.984375 0.898438 147.699219 2.609375 L 148.085938 3.722656 L 146.546875 2.558594 "/>
<path style=" stroke:none;fill-rule:nonzero;fill:rgb(31.399536%,34.498596%,35.299683%);fill-opacity:1;" d="M 149.800781 5.167969 L 149.800781 14.230469 L 148.578125 13.054688 L 148.578125 8.195313 C 148.578125 7.964844 148.480469 7.75 148.277344 7.554688 C 148.074219 7.359375 147.855469 7.261719 147.613281 7.261719 C 147.257813 7.261719 147.078125 7.476563 147.078125 7.902344 C 147.078125 7.949219 147.113281 8.1875 147.183594 8.613281 L 146.394531 8.933594 L 146.449219 8.617188 C 146.449219 8.570313 146.398438 8.46875 146.292969 8.316406 C 146.0625 7.941406 145.847656 7.675781 145.652344 7.523438 C 145.421875 7.347656 145.113281 7.261719 144.734375 7.261719 C 144.351563 7.261719 144.023438 7.394531 143.746094 7.65625 C 143.46875 7.917969 143.328125 8.234375 143.328125 8.605469 C 143.328125 9.085938 143.523438 9.40625 143.914063 9.566406 C 143.855469 9.4375 143.828125 9.304688 143.828125 9.164063 C 143.828125 8.835938 143.941406 8.570313 144.167969 8.359375 C 144.394531 8.148438 144.671875 8.042969 144.996094 8.042969 C 145.378906 8.042969 145.699219 8.234375 145.953125 8.613281 C 146.164063 8.933594 146.269531 9.28125 146.269531 9.648438 C 146.269531 10.007813 146.089844 10.300781 145.730469 10.53125 C 145.429688 10.726563 145.105469 10.824219 144.761719 10.824219 C 143.960938 10.824219 143.324219 10.585938 142.851563 10.109375 C 142.378906 9.636719 142.144531 9.003906 142.144531 8.210938 C 142.144531 7.570313 142.316406 7.003906 142.664063 6.511719 C 143.070313 5.949219 143.605469 5.667969 144.269531 5.667969 C 144.957031 5.667969 145.554688 5.964844 146.066406 6.558594 C 146.183594 6.335938 146.351563 6.132813 146.5625 5.945313 C 146.777344 5.761719 146.976563 5.667969 147.148438 5.667969 C 147.71875 5.667969 148.195313 5.988281 148.578125 6.628906 L 148.578125 5.167969 L 141.902344 5.167969 L 140.644531 3.980469 L 150.960938 3.980469 L 152.222656 5.167969 L 149.800781 5.167969 "/>
<path style=" stroke:none;fill-rule:nonzero;fill:rgb(31.399536%,34.498596%,35.299683%);fill-opacity:1;" d="M 158.894531 2.558594 C 157.761719 1.734375 156.644531 1.324219 155.535156 1.324219 C 154.425781 1.324219 153.523438 1.863281 152.824219 2.945313 C 152.683594 3.160156 152.613281 3.3125 152.613281 3.390625 C 152.648438 3.484375 152.734375 3.691406 152.875 4.011719 L 154.46875 4.011719 L 155.691406 5.199219 L 153.261719 5.199219 L 153.261719 14.136719 L 152.011719 12.96875 L 152.011719 5.199219 L 150.824219 5.199219 L 149.605469 4.011719 L 151.84375 4.011719 C 151.425781 3.621094 151.214844 3.277344 151.214844 2.980469 C 151.214844 2.660156 151.277344 2.390625 151.40625 2.171875 C 152.257813 0.753906 153.367188 0.0429688 154.730469 0.0429688 C 156.5625 0.0429688 158.332031 0.898438 160.046875 2.609375 L 160.433594 3.722656 L 158.894531 2.558594 "/>
<path style=" stroke:none;fill-rule:nonzero;fill:rgb(31.399536%,34.498596%,35.299683%);fill-opacity:1;" d="M 158.542969 10.582031 C 158.472656 10.683594 158.308594 10.828125 158.054688 11.011719 C 157.734375 11.242188 157.375 11.355469 156.964844 11.355469 C 156.300781 11.355469 155.789063 11.082031 155.4375 10.53125 C 155.4375 10.4375 155.417969 10.3125 155.378906 10.152344 C 155.335938 9.992188 155.316406 9.863281 155.316406 9.773438 C 155.316406 9.222656 155.519531 8.800781 155.933594 8.5 C 156.28125 8.238281 156.734375 8.105469 157.285156 8.105469 C 157.484375 8.105469 157.636719 8.105469 157.742188 8.105469 C 157.660156 7.539063 157.40625 7.113281 156.988281 6.832031 C 156.742188 6.671875 156.332031 6.527344 155.761719 6.390625 C 155.269531 6.277344 154.964844 6.144531 154.847656 6 C 154.660156 5.863281 154.519531 5.714844 154.429688 5.558594 C 154.289063 5.332031 154.195313 5.1875 154.148438 5.132813 C 153.890625 4.882813 153.503906 4.511719 152.992188 4.011719 L 162.664063 4.011719 L 163.90625 5.261719 L 161.367188 5.261719 L 161.367188 14.292969 L 160.664063 13.53125 C 160.429688 12.496094 160.109375 11.800781 159.699219 11.445313 C 159.195313 11.007813 158.8125 10.71875 158.542969 10.582031 Z M 160.179688 5.261719 L 156.769531 5.261719 C 157.941406 6.164063 158.613281 6.957031 158.789063 7.640625 C 158.976563 8.359375 159.058594 8.894531 159.035156 9.246094 C 159.351563 9.566406 159.734375 9.996094 160.179688 10.53125 L 160.179688 5.261719 "/>
<path style=" stroke:none;fill-rule:nonzero;fill:rgb(31.399536%,34.498596%,35.299683%);fill-opacity:1;" d="M 165.75 12.660156 C 165.621094 12.230469 165.558594 11.980469 165.558594 11.914063 C 165.558594 11.609375 165.691406 11.34375 165.953125 11.125 C 166.214844 10.902344 166.496094 10.792969 166.800781 10.792969 C 167.046875 10.792969 167.246094 10.867188 167.398438 11.015625 C 167.816406 11.230469 168.027344 11.589844 168.027344 12.09375 C 168.027344 12.550781 167.855469 12.925781 167.511719 13.222656 C 167.167969 13.519531 166.761719 13.667969 166.296875 13.667969 C 165.28125 13.667969 164.484375 13.15625 163.898438 12.136719 C 163.421875 11.289063 163.183594 10.351563 163.183594 9.328125 C 163.183594 7.894531 163.707031 6.519531 164.753906 5.199219 L 162.40625 5.199219 L 161.183594 4.011719 L 167.832031 4.011719 L 169.019531 5.179688 C 168.355469 5.203125 167.765625 5.308594 167.253906 5.503906 C 166.226563 5.90625 165.484375 6.523438 165.027344 7.359375 C 164.632813 8.078125 164.433594 9.035156 164.433594 10.226563 C 164.433594 11.34375 164.871094 12.15625 165.75 12.660156 "/>
<path style=" stroke:none;fill-rule:nonzero;fill:rgb(31.399536%,34.498596%,35.299683%);fill-opacity:1;" d="M 169.644531 1.621094 C 169.667969 1.621094 169.6875 1.621094 169.695313 1.621094 L 169.855469 1.621094 C 170.367188 1.582031 170.828125 1.558594 171.238281 1.558594 C 172.066406 1.558594 172.757813 1.738281 173.308594 2.09375 C 173.972656 2.519531 174.289063 3.132813 174.253906 3.933594 L 175.128906 3.933594 L 176.339844 5.183594 L 169.75 5.183594 L 169.761719 10.769531 C 169.761719 11.066406 169.929688 11.214844 170.269531 11.214844 C 170.664063 11.214844 171.117188 10.96875 171.625 10.472656 C 172.132813 9.976563 172.453125 9.496094 172.597656 9.027344 L 172.5625 9.027344 C 172.226563 9.027344 171.929688 8.925781 171.671875 8.71875 C 171.410156 8.515625 171.28125 8.234375 171.28125 7.878906 C 171.28125 7.492188 171.410156 7.175781 171.664063 6.929688 C 171.921875 6.683594 172.246094 6.558594 172.640625 6.558594 C 173.128906 6.558594 173.523438 6.75 173.828125 7.125 C 174.128906 7.5 174.28125 7.921875 174.28125 8.390625 C 174.28125 9.441406 173.960938 10.292969 173.316406 10.941406 C 172.191406 12.082031 171.304688 12.652344 170.648438 12.652344 C 169.632813 12.652344 168.960938 12.105469 168.632813 11.003906 C 168.585938 10.824219 168.5625 10.398438 168.5625 9.734375 L 168.5625 5.183594 L 167.273438 5.183594 L 166.28125 3.996094 L 173.050781 3.996094 C 173.0625 3.835938 173.066406 3.730469 173.066406 3.683594 C 173.066406 3.519531 172.972656 3.382813 172.777344 3.265625 C 172.585938 3.148438 172.378906 3.089844 172.15625 3.089844 C 171.863281 3.089844 171.4375 3.113281 170.878906 3.152344 C 170.320313 3.195313 169.898438 3.214844 169.621094 3.214844 C 168.921875 3.214844 168.296875 3.054688 167.746094 2.738281 C 167.082031 2.347656 166.75 1.8125 166.75 1.128906 C 166.75 0.796875 166.851563 0.503906 167.046875 0.253906 C 167.140625 0.0703125 167.363281 -0.015625 167.714844 -0.00390625 C 167.761719 0.179688 167.785156 0.363281 167.785156 0.546875 C 167.636719 0.683594 167.5625 0.8125 167.5625 0.925781 C 167.5625 1.167969 167.683594 1.359375 167.921875 1.5 C 168.160156 1.644531 168.429688 1.714844 168.734375 1.714844 C 168.828125 1.714844 169.132813 1.683594 169.644531 1.621094 "/>
<g clip-path="url(#clip1)" clip-rule="nonzero">
<path style=" stroke:none;fill-rule:nonzero;fill:rgb(31.399536%,34.498596%,35.299683%);fill-opacity:1;" d="M 179.636719 5.199219 L 179.636719 8.175781 C 179.90625 8.117188 180.191406 7.957031 180.496094 7.695313 C 180.804688 7.429688 181.042969 7.171875 181.222656 6.921875 C 181.339844 6.726563 181.503906 6.53125 181.714844 6.335938 C 182.242188 6.566406 182.683594 7.019531 183.035156 7.695313 C 183.351563 8.300781 183.511719 8.882813 183.511719 9.429688 C 183.511719 10.484375 183.234375 11.316406 182.6875 11.921875 C 182.113281 12.566406 181.289063 12.886719 180.21875 12.886719 C 179.152344 12.886719 178.289063 12.5 177.625 11.730469 C 176.574219 10.507813 175.929688 8.871094 175.695313 6.824219 C 175.675781 6.535156 175.625 5.992188 175.546875 5.199219 L 176.445313 5.683594 C 176.550781 7.03125 176.882813 8.203125 177.441406 9.191406 C 178.128906 10.425781 179.019531 11.042969 180.113281 11.042969 C 180.730469 11.042969 181.289063 10.851563 181.789063 10.46875 C 182.289063 10.085938 182.539063 9.605469 182.539063 9.035156 C 182.539063 8.769531 182.449219 8.511719 182.261719 8.261719 C 182.042969 8.628906 181.671875 8.984375 181.148438 9.328125 C 180.625 9.671875 180.1875 9.84375 179.839844 9.84375 C 179.15625 9.84375 178.695313 9.429688 178.464844 8.605469 C 178.453125 8.535156 178.445313 7.957031 178.445313 6.867188 L 178.445313 5.199219 L 175.109375 5.199219 L 173.886719 4.011719 L 184.257813 4.011719 L 185.480469 5.199219 L 179.636719 5.199219 "/>
</g>
<g clip-path="url(#clip2)" clip-rule="nonzero">
<path style=" stroke:none;fill-rule:nonzero;fill:rgb(0%,66.665649%,87.449646%);fill-opacity:1;" d="M 19.503906 4.332031 L 19.503906 2.132813 L 5.664063 2.289063 C 5.664063 2.289063 -1.257813 4.019531 1.574219 11.570313 C 1.574219 11.570313 11.796875 22.261719 7.390625 24.78125 C 7.550781 24.78125 5.03125 27.140625 0 26.351563 C 0.15625 26.511719 0 28.554688 0 28.554688 L 13.210938 28.554688 C 13.210938 28.554688 20.289063 27.925781 18.085938 19.589844 C 18.246094 19.589844 16.042969 15.1875 12.582031 11.097656 C 12.738281 10.941406 9.28125 6.0625 15.570313 4.175781 C 15.726563 4.492188 19.503906 4.332031 19.503906 4.332031 "/>
</g>
<g clip-path="url(#clip3)" clip-rule="nonzero">
<path style=" stroke:none;fill-rule:nonzero;fill:rgb(67.449951%,18.823242%,53.33252%);fill-opacity:1;" d="M 21.546875 4.492188 L 21.546875 1.972656 L 32.242188 1.972656 C 32.242188 1.972656 39.320313 4.019531 36.960938 11.097656 C 36.960938 10.941406 36.488281 14.085938 33.03125 15.816406 C 33.1875 15.816406 38.0625 18.175781 36.804688 24.152344 C 36.804688 24.308594 35.703125 28.710938 31.929688 28.871094 C 32.085938 28.871094 17.617188 28.871094 17.617188 28.871094 L 19.1875 26.351563 L 25.636719 26.351563 C 25.636719 26.351563 30.828125 24.621094 27.367188 18.175781 C 27.523438 18.175781 26.738281 15.816406 19.1875 16.289063 C 19.1875 16.445313 17.300781 14.398438 17.300781 14.398438 L 25.953125 14.398438 C 25.953125 14.398438 30.039063 12.667969 28.152344 7.480469 C 28.152344 7.480469 27.050781 4.175781 21.546875 4.492188 "/>
</g>
</g>
</svg>
